<svg id="Layer_1" height="512" viewBox="0 0 512 512" width="512" xmlns="http://www.w3.org/2000/svg" data-name="Layer 1"><path d="m361.52 296.56a35.767 35.767 0 0 1 0 50.59l-58.56 59.42-33.96-34.38a52.907 52.907 0 0 1 -.09-74.26 303.2 303.2 0 0 0 87.88-46.2l.03.04a35.78 35.78 0 0 0 4.7 44.79z" fill="#475673"/><path d="m191.96 127a35.751 35.751 0 0 0 44.78 4.69 304.131 304.131 0 0 0 -46.93 88.67 52.9 52.9 0 0 1 -73.48-.84l-34.39-33.96 59.43-58.56a35.767 35.767 0 0 1 50.59 0z" fill="#475673"/><path d="m477.58 11a305.394 305.394 0 0 1 -7.91 69.22l-.34-.08a130.141 130.141 0 0 1 -61.07-60.8l-.15-.31a303.245 303.245 0 0 1 69.47-8.03z" fill="#ed6337"/><path d="m208.03 261.78-25.13-25.13q2.22-8.235 4.91-16.29a304.131 304.131 0 0 1 46.93-88.67h.01a306.813 306.813 0 0 1 173.36-112.66l.15.31a130.141 130.141 0 0 0 61.07 60.8l.34.08a303.176 303.176 0 0 1 -56.36 117.82 305.378 305.378 0 0 1 -56.52 55.69 303.2 303.2 0 0 1 -87.88 46.2q-8.64 2.865-17.52 5.21l-23.08-23.08z" fill="#e5f5fd"/><path d="m228.31 282.06-12.77 51.65-60.66-60.67 53.15-11.26z" fill="#ed6337"/><path d="m183.74 327.11a21.793 21.793 0 0 1 -19.15 21.66l-27.79 3.45 3.44-27.8a21.833 21.833 0 0 1 43.5 2.69z" fill="#fadf4a"/><circle cx="336.745" cy="151.84" fill="#50a6ea" r="37.867"/><path d="m408.26 19.34-.15-.31a306.813 306.813 0 0 0 -173.36 112.66h-.01a304.131 304.131 0 0 0 -46.93 88.67q-2.685 8.055-4.91 16.29l20 20q2.22-8.235 4.91-16.29a304.131 304.131 0 0 1 46.93-88.67h.01a306.985 306.985 0 0 1 166.55-110.974 130.115 130.115 0 0 1 -13.04-21.376z" fill="#a6b7d0"/><path d="m144.5 398.04h-9.454a6 6 0 1 1 0-12h9.454a41.764 41.764 0 0 0 9.71-1.142 6 6 0 0 1 2.795 11.67 53.748 53.748 0 0 1 -12.505 1.472z" fill="#f9d438"/><path d="m113.387 398.038h-16.387a6 6 0 0 1 -5.885-4.83 57.419 57.419 0 0 1 10.255-42l-4.525-.115a6 6 0 0 1 -5.848-6 53.923 53.923 0 0 1 16.103-38.514 52.678 52.678 0 0 1 37.816-15.552 53.414 53.414 0 0 1 6.349.425c1.683.211 3.425.517 5.163.91a53.578 53.578 0 0 1 40.294 40.48c.374 1.684.666 3.385.866 5.058a53.447 53.447 0 0 1 -15.257 44.467 6 6 0 1 1 -8.484-8.485 41.251 41.251 0 0 0 12.157-29.351 41.727 41.727 0 0 0 -.325-5.16q-.238-1.981-.67-3.919a41.575 41.575 0 0 0 -31.239-31.388c-1.345-.3-2.7-.543-4.01-.707a41.119 41.119 0 0 0 -4.93-.33h-.313a40.9 40.9 0 0 0 -28.96 12.073 42.069 42.069 0 0 0 -12.157 24.154l11.36.288a6 6 0 0 1 3.817 10.5 46.172 46.172 0 0 0 -16.115 36h10.93a6 6 0 1 1 0 12z" fill="#f9d438"/><g fill="#ccd3df"><path d="m395.659 260.914a6 6 0 0 1 -3.83-10.621c4.111-3.405 8.19-6.97 12.121-10.6a6 6 0 1 1 8.137 8.819c-4.088 3.772-8.328 7.48-12.6 11.02a5.974 5.974 0 0 1 -3.828 1.382z"/><path d="m426.943 231.035a6 6 0 0 1 -4.438-10.035 300.531 300.531 0 0 0 23.287-29.059c4.509-6.4 8.814-13.065 12.8-19.8 3.242-5.479 6.345-11.129 9.221-16.792a297.025 297.025 0 0 0 19.462-48.466 6 6 0 0 1 11.487 3.472 309.129 309.129 0 0 1 -20.249 50.428c-2.993 5.892-6.221 11.77-9.594 17.469-4.145 7-8.624 13.931-13.314 20.593a312.778 312.778 0 0 1 -24.218 30.222 5.987 5.987 0 0 1 -4.444 1.968z"/><path d="m20.991 250.51a6 6 0 0 1 -4.242-10.242l4.6-4.595a6 6 0 0 1 8.484 8.485l-4.595 4.595a5.982 5.982 0 0 1 -4.247 1.757z"/><path d="m38.62 232.881a6 6 0 0 1 -4.242-10.243l20.53-20.53a6 6 0 1 1 8.485 8.486l-20.531 20.53a5.982 5.982 0 0 1 -4.242 1.757z"/><path d="m30.029 272.937a6 6 0 0 1 -4.243-10.243l24.133-24.133a6 6 0 0 1 8.486 8.485l-24.133 24.134a5.984 5.984 0 0 1 -4.243 1.757z"/><path d="m65.961 237a6 6 0 0 1 -4.242-10.242l8.922-8.922a6 6 0 1 1 8.484 8.486l-8.925 8.925a5.982 5.982 0 0 1 -4.239 1.753z"/><path d="m18.982 315.447a6 6 0 0 1 -4.242-10.242l26.66-26.658a6 6 0 1 1 8.485 8.485l-26.66 26.658a5.982 5.982 0 0 1 -4.243 1.757z"/><path d="m59.383 275.047a6 6 0 0 1 -4.242-10.247l31.231-31.231a6 6 0 1 1 8.484 8.485l-31.231 31.236a5.982 5.982 0 0 1 -4.242 1.757z"/><path d="m212.544 442.062a6 6 0 0 1 -4.244-10.242l4.594-4.594a6 6 0 0 1 8.486 8.484l-4.594 4.6a5.982 5.982 0 0 1 -4.242 1.752z"/><path d="m230.173 424.434a6 6 0 0 1 -4.242-10.243l20.53-20.53a6 6 0 0 1 8.484 8.485l-20.53 20.53a5.979 5.979 0 0 1 -4.242 1.758z"/><path d="m221.581 464.489a6 6 0 0 1 -4.242-10.242l24.134-24.133a6 6 0 1 1 8.484 8.485l-24.134 24.133a5.982 5.982 0 0 1 -4.242 1.757z"/><path d="m257.514 428.557a6 6 0 0 1 -4.243-10.243l8.92-8.921a6 6 0 0 1 8.487 8.485l-8.921 8.922a5.986 5.986 0 0 1 -4.243 1.757z"/><path d="m210.535 507a6 6 0 0 1 -4.242-10.243l26.658-26.657a6 6 0 1 1 8.485 8.485l-26.659 26.658a5.982 5.982 0 0 1 -4.242 1.757z"/><path d="m250.936 466.6a6 6 0 0 1 -4.243-10.243l31.232-31.232a6 6 0 1 1 8.484 8.486l-31.231 31.231a5.979 5.979 0 0 1 -4.242 1.758z"/></g><path d="m447.828 352.31a33.632 33.632 0 0 1 -21.135-21.2 6 6 0 0 0 -11.386 0 33.632 33.632 0 0 1 -21.135 21.2 6 6 0 0 0 0 11.38 33.632 33.632 0 0 1 21.135 21.2 6 6 0 0 0 11.386 0 33.632 33.632 0 0 1 21.135-21.2 6 6 0 0 0 0-11.38z" fill="#50a6ea"/><path d="m75.828 111.31a33.632 33.632 0 0 1 -21.135-21.2 6 6 0 0 0 -11.386 0 33.632 33.632 0 0 1 -21.135 21.2 6 6 0 0 0 0 11.38 33.632 33.632 0 0 1 21.135 21.2 6 6 0 0 0 11.386 0 33.632 33.632 0 0 1 21.135-21.2 6 6 0 0 0 0-11.38z" fill="#50a6ea"/><path d="m127.038 65a11 11 0 1 1 10.985-11 11 11 0 0 1 -10.985 11z" fill="#d8ff33"/><path d="m402.038 456a11 11 0 1 1 10.985-11 11 11 0 0 1 -10.985 11z" fill="#d8ff33"/></svg>